<svg xmlns="http://www.w3.org/2000/svg" xmlns:xlink="http://www.w3.org/1999/xlink" width="1080" zoomAndPan="magnify" viewBox="0 0 810 809.999993" height="1080" preserveAspectRatio="xMidYMid meet" version="1.0"><defs><clipPath id="01d4bd3bb1"><path d="M 174.917969 174.917969 L 635.078125 174.917969 L 635.078125 635.078125 L 174.917969 635.078125 Z M 174.917969 174.917969 " clip-rule="nonzero"/></clipPath><clipPath id="e9d14a5127"><path d="M 404.996094 174.917969 C 277.925781 174.917969 174.917969 277.925781 174.917969 404.996094 C 174.917969 532.066406 277.925781 635.078125 404.996094 635.078125 C 532.066406 635.078125 635.078125 532.066406 635.078125 404.996094 C 635.078125 277.925781 532.066406 174.917969 404.996094 174.917969 Z M 404.996094 174.917969 " clip-rule="nonzero"/></clipPath></defs><path stroke-linecap="round" transform="matrix(13.624999, 0, 0, 13.624999, 241.332517, 259.715486)" fill="none" stroke-linejoin="round" d="M 5.999965 8.999954 L 11.999965 14.999954 L 17.999966 8.999954 " stroke="#4f959d" stroke-width="2" stroke-opacity="1" stroke-miterlimit="4"/><g clip-path="url(#01d4bd3bb1)"><g clip-path="url(#e9d14a5127)"><path stroke-linecap="butt" transform="matrix(0.75, 0, 0, 0.75, 174.916752, 174.916768)" fill="none" stroke-linejoin="miter" d="M 306.772472 0.001601 C 137.34538 0.001601 0.001623 137.345358 0.001623 306.77245 C 0.001623 476.199542 137.34538 613.548507 306.772472 613.548507 C 476.199564 613.548507 613.548529 476.199542 613.548529 306.77245 C 613.548529 137.345358 476.199564 0.001601 306.772472 0.001601 Z M 306.772472 0.001601 " stroke="#4f959d" stroke-width="56" stroke-opacity="1" stroke-miterlimit="4"/></g></g></svg>